<?xml version="1.0" encoding="UTF-8"?>
<!DOCTYPE svg PUBLIC "-//W3C//DTD SVG 1.1//EN" "http://www.w3.org/Graphics/SVG/1.1/DTD/svg11.dtd">
<!-- Creator: CorelDRAW 2019 (64 Bit) -->
<svg xmlns="http://www.w3.org/2000/svg" xml:space="preserve" width="210mm" height="297mm" version="1.1" style="shape-rendering:geometricPrecision; text-rendering:geometricPrecision; image-rendering:optimizeQuality; fill-rule:evenodd; clip-rule:evenodd"
viewBox="0 0 21000 29700"
 xmlns:xlink="http://www.w3.org/1999/xlink">
 <defs>
  <style type="text/css">
   <![CDATA[
    .fil0 {fill:black}
   ]]>
  </style>
 </defs>
 <g id="Camada_x0020_1">
  <metadata id="CorelCorpID_0Corel-Layer"/>
  <g id="_2247978722672">
   <path class="fil0" d="M2148.43 15780.21c0,2853.81 3503.38,5167.32 7824.7,5167.32 4321.53,0 7824.9,-2313.31 7824.7,-5167.32 0,-1243.44 -665.27,-2384.46 -1773.57,-3275.96 -190.71,-1858.92 700.35,-2987.49 1301.79,-3655.33 -1849.07,-483.53 -3752.52,1012.71 -4617.79,2088.7 -851.35,-209.64 -1772.84,-324.72 -2735.13,-324.72 -4321.34,0 -7824.7,2313.7 -7824.7,5167.31zm15596.79 -8659.74l2822.78 738.15 -1988.29 2207.77c-506.24,562.12 -783.46,1031.54 -850.64,1617.64 1132.97,1146.13 1785.23,2560.58 1785.23,4096.07 0.26,4050.92 -4389.62,6949.83 -9541.14,6949.83 -5151.19,0 -9541.13,-2899.02 -9541.13,-6949.71 0,-4050.56 4390.05,-6949.7 9541.13,-6949.7 726.84,0 1443.59,57.77 2139.7,170.86 1539.53,-1497.32 3619.29,-2407.31 5632.38,-1880.88l-0.02 -0.03z"/>
   <g>
    <ellipse class="fil0" cx="9870.74" cy="15837.17" rx="1135.48" ry="1184.94"/>
    <ellipse class="fil0" cx="6464.27" cy="15837.17" rx="1135.48" ry="1184.94"/>
    <ellipse class="fil0" cx="13277.2" cy="15837.17" rx="1135.48" ry="1184.94"/>
   </g>
  </g>
 </g>
</svg>
